<svg width="388" height="78" viewBox="0 0 388 78" fill="none" xmlns="http://www.w3.org/2000/svg">
<path d="M111.154 51.7922C110.85 51.6774 110.808 51.5261 110.808 51.3969C110.808 51.1882 110.859 51.1308 110.895 51.0878C110.93 51.0369 111.031 50.93 111.335 50.7787C115.338 48.5169 117.373 45.1568 117.373 40.8054C117.373 36.454 115.966 33.3744 113.188 31.0617C110.425 28.7216 106.673 27.5294 102.027 27.5294H82.9863V76.0601H102.012C106.832 76.0601 110.684 74.8679 113.44 72.5278C116.262 70.1721 117.689 66.7834 117.689 62.4476C117.689 57.1062 115.489 53.5152 111.146 51.7856L111.154 51.7922ZM107.864 46.5081C106.407 47.6208 104.213 48.1816 101.349 48.1816H90.2592V34.1022H101.349C104.213 34.1022 106.407 34.6618 107.871 35.7757C109.349 36.8675 110.1 38.6688 110.1 41.1393C110.1 43.6098 109.351 45.4112 107.871 46.5029L107.864 46.5081ZM90.2592 54.7505H101.349C104.394 54.7505 106.695 55.3322 108.203 56.4879C109.682 57.5797 110.432 59.4749 110.432 62.1176C110.432 64.7603 109.682 66.6842 108.203 67.8112C106.702 68.9239 104.394 69.4847 101.349 69.4847H90.2592V54.744V54.7505Z" fill="#7F8CFF"/>
<path d="M149.226 59.1227C149.226 63.1154 148.302 66.1664 146.49 68.1908C144.73 70.1578 142.14 71.1556 138.807 71.1556C135.871 71.1556 133.598 70.3586 132.053 68.779C130.508 67.1994 129.723 64.845 129.723 61.7863V40.8497H123.121V62.7854C123.121 67.2868 124.412 70.8269 126.952 73.3117C129.492 75.7966 133.027 77.0592 137.465 77.0592C142.262 77.0592 145.984 75.4287 148.51 72.2487L148.842 71.9187C148.914 71.8469 148.987 71.8039 149.037 71.8039C149.188 71.8039 149.217 71.8326 149.217 71.9839V76.0692H155.819V40.851H149.217V59.1241H149.226V59.1227Z" fill="#7F8CFF"/>
<path d="M169.903 40.8497H163.301V76.0601H169.903V40.8497Z" fill="#7F8CFF"/>
<path d="M166.599 27.4081C164.268 27.4081 162.37 29.2968 162.37 31.6226V31.8887C162.37 34.2078 164.268 36.1031 166.599 36.1031C168.929 36.1031 170.827 34.2144 170.827 31.8887V31.6226C170.827 29.3047 168.929 27.4081 166.599 27.4081Z" fill="#7F8CFF"/>
<path d="M205.162 44.935C205.162 45.1789 205.09 45.179 204.981 45.179C204.917 45.179 204.729 45.179 204.468 44.8124C201.705 41.5163 197.751 39.8441 192.738 39.8441C189.757 39.8441 186.922 40.5471 184.303 41.9402C181.678 43.2902 179.5 45.3864 177.833 48.1803C176.209 50.9665 175.387 54.4192 175.387 58.4484C175.387 62.4763 176.209 65.9303 177.839 68.7229C179.506 71.5091 181.685 73.6274 184.311 75.027C186.93 76.377 189.765 77.0592 192.744 77.0592C197.766 77.0592 201.712 75.3857 204.491 72.0765C204.736 71.7322 204.93 71.7322 204.995 71.7322C205.096 71.7322 205.175 71.7322 205.175 71.9761V76.0614H211.777V27.5307H205.175V44.935H205.162ZM202.232 49.1351C204.396 51.3317 205.493 54.47 205.493 58.4549C205.493 62.4398 204.396 65.6068 202.226 67.8464C200.105 70.043 197.248 71.1569 193.734 71.1569C190.221 71.1569 187.335 70.0443 185.178 67.8543C183.057 65.6146 181.974 62.4476 181.974 58.4627C181.974 54.4779 183.049 51.333 185.171 49.1364C187.335 46.8968 190.213 45.762 193.727 45.762C197.24 45.762 200.097 46.8968 202.219 49.1364H202.232V49.1351Z" fill="#7F8CFF"/>
<path d="M225.781 27.5307H219.179V76.0614H225.781V27.5307Z" fill="#7F8CFF"/>
<path d="M248.652 35.4574C251.27 33.8922 254.352 33.1017 257.808 33.1017C262.483 33.1017 266.061 34.2652 268.449 36.5479C270.839 38.8384 272.231 41.9611 272.577 45.8246L272.599 46.0829H279.856L279.842 45.7816C279.706 42.4646 278.817 39.3119 277.194 36.3979C275.57 33.4761 273.096 31.0852 269.857 29.2969C266.66 27.459 262.715 26.5251 258.133 26.5251C253.155 26.5251 248.718 27.5881 244.945 29.6921C241.164 31.753 238.199 34.7257 236.128 38.5306C234.107 42.3289 233.083 46.7872 233.083 51.7843C233.083 56.7814 234.086 61.2411 236.062 65.0381C238.09 68.843 241.034 71.8443 244.814 73.9483C248.587 76.0014 253.067 77.0501 258.14 77.0501C264.567 77.0501 269.654 75.3909 273.261 72.1104C276.919 68.8286 278.78 64.2477 278.78 58.511V53.4917H253.839V60.0619H271.509C271.443 63.1637 270.375 65.6838 268.328 67.5582C266.206 69.4965 262.895 70.48 258.487 70.48C254.721 70.48 251.43 69.7117 248.725 68.1895C246.02 66.6242 243.92 64.4198 242.485 61.648C241.085 58.8123 240.371 55.4953 240.371 51.783C240.371 48.0707 241.099 44.8255 242.549 41.9897C243.992 39.1684 246.049 36.964 248.667 35.4483L248.652 35.4574Z" fill="#7F8CFF"/>
<path d="M310.707 59.1227C310.707 63.1154 309.783 66.1664 307.973 68.1908C306.213 70.1578 303.623 71.1556 300.288 71.1556C297.345 71.1556 295.08 70.3586 293.536 68.779C291.992 67.1994 291.205 64.845 291.205 61.7863V40.8497H284.603V62.7854C284.603 67.2868 285.894 70.8269 288.442 73.3117C290.983 75.7966 294.517 77.0592 298.954 77.0592C303.753 77.0592 307.481 75.4287 309.999 72.2487L310.332 71.9187C310.404 71.8469 310.476 71.8039 310.526 71.8039C310.678 71.8039 310.707 71.8326 310.707 71.9839V76.0692H317.309V40.851H310.707V59.1227Z" fill="#7F8CFF"/>
<path d="M331.384 40.8497H324.782V76.0601H331.384V40.8497Z" fill="#7F8CFF"/>
<path d="M328.08 27.4081C325.75 27.4081 323.844 29.2968 323.844 31.6226V31.8887C323.844 34.2078 325.742 36.1031 328.08 36.1031C330.417 36.1031 332.315 34.2144 332.315 31.8887V31.6226C332.314 29.3047 330.417 27.4081 328.08 27.4081Z" fill="#7F8CFF"/>
<path d="M366.642 44.935C366.642 45.1789 366.57 45.179 366.461 45.179C366.397 45.179 366.209 45.179 365.948 44.8124C363.186 41.5163 359.232 39.8441 354.218 39.8441C351.239 39.8441 348.404 40.5471 345.785 41.9402C343.158 43.2902 340.98 45.3864 339.313 48.1803C337.69 50.9665 336.867 54.4192 336.867 58.4484C336.867 62.4763 337.69 65.9303 339.321 68.7229C340.986 71.5091 343.166 73.6274 345.791 75.027C348.41 76.377 351.245 77.0592 354.226 77.0592C359.247 77.0592 363.193 75.3857 365.971 72.0765C366.216 71.7322 366.411 71.7322 366.475 71.7322C366.576 71.7322 366.656 71.7322 366.656 71.9761V76.0614H373.258V27.5307H366.656V44.935H366.642ZM363.714 49.1351C365.878 51.3317 366.975 54.47 366.975 58.4549C366.975 62.4398 365.878 65.6068 363.706 67.8464C361.585 70.043 358.728 71.1569 355.215 71.1569C351.701 71.1569 348.815 70.0443 346.658 67.8543C344.537 65.6146 343.455 62.4476 343.455 58.4627C343.455 54.4779 344.531 51.333 346.651 49.1364C348.815 46.8968 351.695 45.762 355.207 45.762C358.721 45.762 361.579 46.8968 363.699 49.1364H363.714V49.1351Z" fill="#7F8CFF"/>
<path d="M387.263 27.5307H380.661V76.0614H387.263V27.5307Z" fill="#7F8CFF"/>
<path d="M63.1218 27.6657V76.139H42.8441V61.8641C42.8441 55.5923 37.7624 50.5075 31.5185 50.5075C25.2747 50.5075 20.193 55.5923 20.193 61.8641V76.139H0V27.6657H11.818V34.6696C11.818 37.667 14.2505 40.0907 17.2345 40.0907C20.2186 40.0907 22.6511 37.667 22.6511 34.6696V27.6657H40.3781V34.6399C40.3781 37.6374 42.8106 40.061 45.7947 40.061C48.7787 40.061 51.2112 37.6374 51.2112 34.6399V27.6657H63.1218Z" fill="#7F8CFF"/>
<path d="M28.7643 2.11538V32.1934H34.0339V18.7083C34.0339 18.7083 35.3804 15.9385 40.2893 17.1603C46.7851 18.7772 54.7881 17.6815 59.9257 8.38303C44.3573 13.5107 43.9403 -4.1099 28.7643 2.11538Z" fill="#7F8CFF"/>
</svg>
